<?xml version="1.0" encoding="UTF-8"?>
<svg width="16px" height="16px" viewBox="0 0 16 16" version="1.1" xmlns="http://www.w3.org/2000/svg" xmlns:xlink="http://www.w3.org/1999/xlink">
    <!-- Generator: sketchtool 57.1 (101010) - https://sketch.com -->
    <title>2F72DD2F-3F55-452B-B401-87DCC2F91DA8</title>
    <desc>Created with sketchtool.</desc>
    <g id="Page-1" stroke="none" stroke-width="1" fill="none" fill-rule="evenodd">
        <g id="For-testing" transform="translate(-1230.000000, -5761.000000)" fill="#8392A6">
            <g id="FOOTER/footer-white" transform="translate(0.000000, 5676.000000)">
                <g id="footer">
                    <g id="g-copy" transform="translate(1217.000000, 72.000000)">
                        <path d="M23.13984,13.8 L19.6395789,13.8 C18.0798316,13.8 17.0001347,14.148866 16.0283621,14.9678351 C15.2641011,15.6405155 14.808,16.6181443 14.808,17.5830928 C14.808,19.0697938 15.9190737,20.6497423 17.9779705,20.6497423 C18.1759326,20.6497423 18.3951158,20.6290206 18.5885305,20.6106186 L18.5600337,20.6812887 C18.4772716,20.8835567 18.3989053,21.0743814 18.3989053,21.3722165 C18.3989053,21.9521134 18.6731116,22.3097938 18.9382232,22.6554124 L18.9715705,22.6991753 L18.9123032,22.7033505 C18.0620968,22.762732 16.4796126,22.8734536 15.3236716,23.5982474 C13.9584,24.4263402 13.8522947,25.6309794 13.8522947,25.9803093 C13.8522947,27.3702062 15.12192,28.7730928 17.9585684,28.7730928 C21.2569263,28.7730928 22.9828042,26.9166495 22.9828042,25.0829381 C22.9831074,23.7265979 22.2035368,23.0570103 21.3760674,22.346134 L20.6780463,21.7922165 C20.4623495,21.6098969 20.1937516,21.3830412 20.1937516,20.962732 C20.1937516,20.5495361 20.4623495,20.2767526 20.6994189,20.036134 L20.7241263,20.0106186 C21.4779284,19.4048969 22.3322274,18.7181443 22.3322274,17.2326804 C22.3322274,15.7391753 21.4174484,14.9673711 20.9775663,14.5963918 L22.1391158,14.5963918 C22.1533642,14.5963918 22.1676126,14.5923711 22.1794358,14.5844845 L23.1800084,13.942732 C23.2085053,13.9243299 23.2218442,13.8889175 23.2124463,13.8558247 C23.2035032,13.822732 23.1734905,13.8 23.13984,13.8 L23.13984,13.8 Z M18.8951747,27.9548969 C16.8846316,27.9548969 15.53376,26.9969072 15.53376,25.5709794 C15.53376,24.6398969 16.0862653,23.9633505 17.1744505,23.561134 C18.0458779,23.2619072 19.1707453,23.2470619 19.1819621,23.2470619 C19.3724968,23.2470619 19.4682947,23.2470619 19.62048,23.2665464 C21.0272842,24.2879381 21.7036295,24.8242268 21.7036295,25.8456186 C21.7034779,27.1467526 20.6272674,27.9548969 18.8951747,27.9548969 L18.8951747,27.9548969 Z M26.1254905,18.8409278 C26.1671747,18.8409278 26.20128,18.875567 26.20128,18.9182474 L26.20128,18.9182474 L26.20128,20.7932474 L28.0456926,20.7932474 C28.08768,20.7932474 28.1214821,20.827732 28.1214821,20.870567 L28.1214821,20.870567 L28.1214821,21.6904639 C28.1214821,21.733299 28.0875284,21.7677835 28.0456926,21.7677835 L28.0456926,21.7677835 L26.20128,21.7677835 L26.20128,23.6551546 C26.20128,23.6976804 26.1671747,23.7324742 26.1254905,23.7324742 L26.1254905,23.7324742 L25.3321263,23.7324742 C25.2902905,23.7324742 25.2563368,23.6976804 25.2563368,23.6551546 L25.2563368,23.6551546 L25.2563368,21.7680928 L23.4211705,21.7680928 C23.3793347,21.7680928 23.3453811,21.733299 23.3453811,21.6907732 L23.3453811,21.6907732 L23.3453811,20.870567 C23.3453811,20.8278866 23.3793347,20.7932474 23.4211705,20.7932474 L23.4211705,20.7932474 L25.2563368,20.7932474 L25.2563368,18.9182474 C25.2563368,18.875567 25.2902905,18.8409278 25.3321263,18.8409278 L25.3321263,18.8409278 Z M18.2461137,14.5377835 C19.7954021,14.5377835 20.6521263,16.6622165 20.6521263,18.1305155 C20.6521263,18.3621649 20.6521263,19.0668557 20.1749558,19.5562887 C19.8540632,19.8830412 19.3321768,20.1024742 18.8762274,20.1024742 C17.1888505,20.1024742 16.4885558,17.8396392 16.4885558,16.6280412 C16.4885558,16.0119588 16.6258863,15.5390722 16.9084295,15.1820103 C17.2150737,14.7906186 17.7401432,14.5377835 18.2461137,14.5377835 Z" id="g+"></path>
                    </g>
                </g>
            </g>
        </g>
    </g>
</svg>