<?xml version="1.0" encoding="UTF-8"?>
<svg width="24px" height="20px" viewBox="0 0 24 20" version="1.1" xmlns="http://www.w3.org/2000/svg" xmlns:xlink="http://www.w3.org/1999/xlink">
    <!-- Generator: sketchtool 57.1 (101010) - https://sketch.com -->
    <title>4469E3C1-FC23-45E0-A7FD-546BD834D114</title>
    <desc>Created with sketchtool.</desc>
    <g id="Page-1" stroke="none" stroke-width="1" fill="none" fill-rule="evenodd">
        <g id="For-testing-2" transform="translate(-1241.000000, -190.000000)">
            <g id="view-table" transform="translate(1239.000000, 186.000000)">
                <polygon id="Shape" points="0 0 28 0 28 28 0 28"></polygon>
                <path d="M2.33333333,17.0196078 L7.82352941,17.0196078 L7.82352941,11.5294118 L2.33333333,11.5294118 L2.33333333,17.0196078 L2.33333333,17.0196078 Z M2.33333333,23.8823529 L7.82352941,23.8823529 L7.82352941,18.3921569 L2.33333333,18.3921569 L2.33333333,23.8823529 L2.33333333,23.8823529 Z M2.33333333,10.1568627 L7.82352941,10.1568627 L7.82352941,4.66666667 L2.33333333,4.66666667 L2.33333333,10.1568627 L2.33333333,10.1568627 Z M9.19607843,17.0196078 L25.6666667,17.0196078 L25.6666667,11.5294118 L9.19607843,11.5294118 L9.19607843,17.0196078 L9.19607843,17.0196078 Z M9.19607843,23.8823529 L25.6666667,23.8823529 L25.6666667,18.3921569 L9.19607843,18.3921569 L9.19607843,23.8823529 L9.19607843,23.8823529 Z M9.19607843,4.66666667 L9.19607843,10.1568627 L25.6666667,10.1568627 L25.6666667,4.66666667 L9.19607843,4.66666667 L9.19607843,4.66666667 Z" id="Shape" fill="#E1E8F0"></path>
            </g>
        </g>
    </g>
</svg>